<mxfile host="app.diagrams.net" modified="2024-05-15T08:46:09.569Z" agent="Mozilla/5.0 (Windows NT 10.0; Win64; x64) AppleWebKit/537.36 (KHTML, like Gecko) Chrome/124.0.0.0 Safari/537.36 Edg/124.0.0.0" etag="hfIM7DYLNm7wHJtw-Et8" version="24.4.0" type="github">
  <diagram name="Page-1" id="74e2e168-ea6b-b213-b513-2b3c1d86103e">
    <mxGraphModel dx="984" dy="545" grid="0" gridSize="10" guides="1" tooltips="1" connect="1" arrows="1" fold="1" page="1" pageScale="1" pageWidth="1100" pageHeight="850" background="#000000" math="0" shadow="0">
      <root>
        <mxCell id="0" />
        <mxCell id="1" parent="0" />
        <mxCell id="77e6c97f196da883-1" value="Lora 通信流程" style="swimlane;html=1;childLayout=stackLayout;startSize=20;rounded=0;shadow=0;labelBackgroundColor=none;strokeWidth=1;fontFamily=Verdana;fontSize=8;align=center;strokeColor=#0066CC;" parent="1" vertex="1">
          <mxGeometry x="70" y="40" width="693" height="750" as="geometry" />
        </mxCell>
        <mxCell id="77e6c97f196da883-2" value="&lt;font color=&quot;#000000&quot;&gt;服务器&lt;/font&gt;" style="swimlane;html=1;startSize=20;strokeColor=#0066CC;fontColor=#FFFFFF;" parent="77e6c97f196da883-1" vertex="1">
          <mxGeometry y="20" width="160" height="730" as="geometry" />
        </mxCell>
        <mxCell id="77e6c97f196da883-8" value="系统初始化后&lt;div&gt;启动lora通信&lt;/div&gt;&lt;div&gt;将自己设为“服务器”角色&lt;/div&gt;" style="rounded=1;whiteSpace=wrap;html=1;shadow=0;labelBackgroundColor=none;strokeWidth=1;fontFamily=Verdana;fontSize=8;align=center;strokeColor=#0066CC;fillColor=#666666;fontColor=#FFFFFF;" parent="77e6c97f196da883-2" vertex="1">
          <mxGeometry x="30" y="32" width="100" height="60" as="geometry" />
        </mxCell>
        <mxCell id="77e6c97f196da883-26" style="rounded=1;html=1;labelBackgroundColor=none;startArrow=none;startFill=0;startSize=5;endArrow=classicThin;endFill=1;endSize=5;jettySize=auto;orthogonalLoop=1;strokeWidth=1;fontFamily=Verdana;fontSize=8;strokeColor=#0066CC;" parent="77e6c97f196da883-2" source="77e6c97f196da883-8" edge="1">
          <mxGeometry relative="1" as="geometry">
            <mxPoint x="80" y="116.00000000000011" as="targetPoint" />
          </mxGeometry>
        </mxCell>
        <mxCell id="rvzNmCv426vPERhAY20t-1" value="广播查询是否有&lt;div&gt;可连接的客户端&lt;/div&gt;" style="rounded=1;whiteSpace=wrap;html=1;shadow=0;labelBackgroundColor=none;strokeWidth=1;fontFamily=Verdana;fontSize=8;align=center;strokeColor=#0066CC;fillColor=#666666;fontColor=#FFFFFF;" vertex="1" parent="77e6c97f196da883-2">
          <mxGeometry x="25" y="118" width="100" height="60" as="geometry" />
        </mxCell>
        <mxCell id="77e6c97f196da883-13" value="等待客户端回应" style="rhombus;whiteSpace=wrap;html=1;rounded=0;shadow=0;labelBackgroundColor=none;strokeWidth=1;fontFamily=Verdana;fontSize=8;align=center;strokeColor=#0066CC;fillColor=#004C99;fontColor=#FFFFFF;" parent="77e6c97f196da883-2" vertex="1">
          <mxGeometry x="35" y="197" width="80" height="60" as="geometry" />
        </mxCell>
        <mxCell id="rvzNmCv426vPERhAY20t-4" value="有可连接的客户端则&lt;div&gt;记录起来&lt;/div&gt;" style="rounded=1;whiteSpace=wrap;html=1;shadow=0;labelBackgroundColor=none;strokeWidth=1;fontFamily=Verdana;fontSize=8;align=center;strokeColor=#0066CC;fillColor=#666666;fontColor=#FFFFFF;" vertex="1" parent="77e6c97f196da883-2">
          <mxGeometry x="25" y="300" width="100" height="60" as="geometry" />
        </mxCell>
        <mxCell id="rvzNmCv426vPERhAY20t-5" style="rounded=1;html=1;labelBackgroundColor=none;startArrow=none;startFill=0;startSize=5;endArrow=classicThin;endFill=1;endSize=5;jettySize=auto;orthogonalLoop=1;strokeWidth=1;fontFamily=Verdana;fontSize=8;strokeColor=#0066CC;" edge="1" parent="77e6c97f196da883-2" source="77e6c97f196da883-13" target="rvzNmCv426vPERhAY20t-4">
          <mxGeometry relative="1" as="geometry">
            <mxPoint x="74.66" y="269" as="sourcePoint" />
            <mxPoint x="74.66" y="293.0000000000001" as="targetPoint" />
          </mxGeometry>
        </mxCell>
        <mxCell id="77e6c97f196da883-3" value="一级路由" style="swimlane;html=1;startSize=20;strokeColor=#0066CC;" parent="77e6c97f196da883-1" vertex="1">
          <mxGeometry x="160" y="20" width="160" height="730" as="geometry" />
        </mxCell>
        <mxCell id="rvzNmCv426vPERhAY20t-6" value="系统初始化后&lt;div&gt;启动lora通信&lt;/div&gt;&lt;div&gt;将自己设为“一级路由”角色&lt;/div&gt;" style="rounded=1;whiteSpace=wrap;html=1;shadow=0;labelBackgroundColor=none;strokeWidth=1;fontFamily=Verdana;fontSize=8;align=center;strokeColor=#0066CC;fillColor=#666666;fontColor=#FFFFFF;" vertex="1" parent="77e6c97f196da883-3">
          <mxGeometry x="30" y="32" width="100" height="60" as="geometry" />
        </mxCell>
        <mxCell id="77e6c97f196da883-4" value="二级路由" style="swimlane;html=1;startSize=20;strokeColor=#0066CC;" parent="77e6c97f196da883-1" vertex="1">
          <mxGeometry x="320" y="20" width="160" height="730" as="geometry" />
        </mxCell>
        <mxCell id="rvzNmCv426vPERhAY20t-7" value="系统初始化后&lt;div&gt;启动lora通信&lt;/div&gt;&lt;div&gt;将自己设为“二级路由”角色&lt;/div&gt;" style="rounded=1;whiteSpace=wrap;html=1;shadow=0;labelBackgroundColor=none;strokeWidth=1;fontFamily=Verdana;fontSize=8;align=center;strokeColor=#0066CC;fillColor=#666666;fontColor=#FFFFFF;" vertex="1" parent="77e6c97f196da883-4">
          <mxGeometry x="30" y="32" width="100" height="60" as="geometry" />
        </mxCell>
        <mxCell id="77e6c97f196da883-5" value="客户端" style="swimlane;html=1;startSize=20;strokeColor=#0066CC;" parent="77e6c97f196da883-1" vertex="1">
          <mxGeometry x="480" y="20" width="160" height="730" as="geometry" />
        </mxCell>
        <mxCell id="rvzNmCv426vPERhAY20t-2" value="接收到服务器的广播后&lt;div&gt;回复自己的地址&lt;/div&gt;&lt;div&gt;记录自己的上级为“服务器”&lt;/div&gt;" style="rounded=1;whiteSpace=wrap;html=1;shadow=0;labelBackgroundColor=none;strokeWidth=1;fontFamily=Verdana;fontSize=8;align=center;strokeColor=#0066CC;fillColor=#666666;fontColor=#FFFFFF;" vertex="1" parent="77e6c97f196da883-5">
          <mxGeometry x="30" y="118" width="100" height="60" as="geometry" />
        </mxCell>
        <mxCell id="rvzNmCv426vPERhAY20t-8" value="系统初始化后&lt;div&gt;启动lora通信&lt;/div&gt;&lt;div&gt;将自己设为“客户端”角色&lt;/div&gt;" style="rounded=1;whiteSpace=wrap;html=1;shadow=0;labelBackgroundColor=none;strokeWidth=1;fontFamily=Verdana;fontSize=8;align=center;strokeColor=#0066CC;fillColor=#666666;fontColor=#FFFFFF;" vertex="1" parent="77e6c97f196da883-5">
          <mxGeometry x="33" y="32" width="100" height="60" as="geometry" />
        </mxCell>
        <mxCell id="rvzNmCv426vPERhAY20t-3" style="edgeStyle=orthogonalEdgeStyle;rounded=1;html=1;labelBackgroundColor=none;startArrow=none;startFill=0;startSize=5;endArrow=classicThin;endFill=1;endSize=5;jettySize=auto;orthogonalLoop=1;strokeWidth=1;fontFamily=Verdana;fontSize=8;strokeColor=#0066CC;" edge="1" parent="77e6c97f196da883-1" source="rvzNmCv426vPERhAY20t-1" target="rvzNmCv426vPERhAY20t-2">
          <mxGeometry relative="1" as="geometry">
            <mxPoint x="228" y="167.66" as="sourcePoint" />
            <mxPoint x="298" y="167.66" as="targetPoint" />
            <Array as="points" />
          </mxGeometry>
        </mxCell>
        <mxCell id="77e6c97f196da883-33" style="edgeStyle=orthogonalEdgeStyle;rounded=1;html=1;labelBackgroundColor=none;startArrow=none;startFill=0;startSize=5;endArrow=classicThin;endFill=1;endSize=5;jettySize=auto;orthogonalLoop=1;strokeWidth=1;fontFamily=Verdana;fontSize=8;strokeColor=#0066CC;" parent="77e6c97f196da883-1" source="rvzNmCv426vPERhAY20t-2" target="77e6c97f196da883-13" edge="1">
          <mxGeometry relative="1" as="geometry">
            <mxPoint x="202.24" y="329" as="sourcePoint" />
            <mxPoint x="597.24" y="351" as="targetPoint" />
            <Array as="points">
              <mxPoint x="560" y="247" />
            </Array>
          </mxGeometry>
        </mxCell>
      </root>
    </mxGraphModel>
  </diagram>
</mxfile>
